# Blender v2.92.0 OBJ File: ''
# www.blender.org
mtllib unlock.mtl
o Plane
v -0.059637 0.000000 0.049841
v -0.096281 0.000000 0.013197
v -0.069121 0.000000 0.048593
v -0.077959 0.000000 0.044932
v -0.085549 0.000000 0.039109
v -0.091372 0.000000 0.031519
v -0.095033 0.000000 0.022682
v 0.096281 0.000000 0.013197
v 0.059637 0.000000 0.049841
v 0.095033 0.000000 0.022682
v 0.091372 0.000000 0.031519
v 0.085549 0.000000 0.039109
v 0.077959 0.000000 0.044932
v 0.069121 0.000000 0.048593
v -0.096281 0.000000 -0.071638
v -0.071638 0.000000 -0.096281
v -0.095442 0.000000 -0.078016
v -0.092980 0.000000 -0.083960
v -0.089064 0.000000 -0.089064
v -0.083960 0.000000 -0.092980
v -0.078016 0.000000 -0.095442
v 0.071638 0.000000 -0.096281
v 0.096281 0.000000 -0.071638
v 0.078016 0.000000 -0.095442
v 0.083960 0.000000 -0.092980
v 0.089064 0.000000 -0.089064
v 0.092980 0.000000 -0.083960
v 0.095442 0.000000 -0.078016
vt 0.190297 0.000000
vt 0.141044 0.002848
vt 0.095148 0.011199
vt 0.018579 0.024483
vt 0.008498 0.125388
vt 0.002161 0.185870
vt 0.000000 0.250776
vt 0.000000 0.831354
vt 0.001452 0.874996
vt 0.005710 0.915654
vt 0.012488 0.983503
vt 0.063983 0.992447
vt 0.094851 0.998078
vt 0.127974 1.000000
vt 0.872026 1.000000
vt 0.905149 0.998078
vt 0.936017 0.992447
vt 0.987512 0.983503
vt 0.994290 0.915655
vt 0.998548 0.874996
vt 1.000000 0.831354
vt 1.000000 0.250776
vt 0.997839 0.185870
vt 0.991502 0.125388
vt 0.981421 0.024483
vt 0.904852 0.011199
vt 0.858956 0.002848
vt 0.809703 0.000000
vn 0.0000 -1.0000 0.0000
usemtl None
s off
f 1/1/1 3/2/1 4/3/1 5/4/1 6/5/1 7/6/1 2/7/1 15/8/1 17/9/1 18/10/1 19/11/1 20/12/1 21/13/1 16/14/1 22/15/1 24/16/1 25/17/1 26/18/1 27/19/1 28/20/1 23/21/1 8/22/1 10/23/1 11/24/1 12/25/1 13/26/1 14/27/1 9/28/1
o Circle_Circle.001
v 0.009360 -0.058091 -0.128125
v 0.011037 -0.058202 -0.147586
v 0.013683 -0.058370 -0.167131
v 0.019971 -0.058473 -0.186058
v 0.032391 -0.058544 -0.200452
v 0.050140 -0.058560 -0.209948
v 0.069225 -0.058560 -0.215300
v 0.040540 -0.058082 -0.123272
v 0.041686 -0.058115 -0.137159
v 0.043385 -0.058199 -0.151050
v 0.046415 -0.058307 -0.163746
v 0.051865 -0.058414 -0.174052
v 0.060717 -0.058501 -0.180780
v 0.071481 -0.058551 -0.184598
v 0.019584 -0.058082 -0.112815
v 0.008885 -0.058082 -0.122421
v 0.013566 -0.058082 -0.114463
v 0.009656 -0.058082 -0.117941
v 0.040540 -0.058082 -0.123272
v 0.027318 -0.058082 -0.112815
v 0.038557 -0.058082 -0.118128
v 0.033642 -0.058082 -0.114489
v 0.092354 -0.058560 -0.217135
v 0.175347 -0.058091 -0.128125
v 0.173670 -0.058202 -0.147586
v 0.171024 -0.058370 -0.167131
v 0.164736 -0.058473 -0.186058
v 0.152316 -0.058544 -0.200452
v 0.134567 -0.058560 -0.209948
v 0.115482 -0.058560 -0.215300
v 0.092354 -0.058560 -0.185654
v 0.144167 -0.058082 -0.123272
v 0.143021 -0.058115 -0.137159
v 0.141322 -0.058199 -0.151050
v 0.138292 -0.058307 -0.163746
v 0.132842 -0.058414 -0.174052
v 0.123990 -0.058501 -0.180780
v 0.113226 -0.058551 -0.184598
v 0.165123 -0.058082 -0.112815
v 0.175822 -0.058082 -0.122421
v 0.171141 -0.058082 -0.114463
v 0.175051 -0.058082 -0.117941
v 0.144167 -0.058082 -0.123272
v 0.157389 -0.058082 -0.112815
v 0.146150 -0.058082 -0.118128
v 0.151065 -0.058082 -0.114489
vt 0.000000 0.000000
vt 0.000000 0.000000
vt 0.000000 0.000000
vt 0.000000 0.000000
vt 0.000000 0.000000
vt 0.000000 0.000000
vt 0.000000 0.000000
vt 0.000000 0.000000
vt 0.000000 0.000000
vt 0.000000 0.000000
vt 0.000000 0.000000
vt 0.000000 0.000000
vt 0.000000 0.000000
vt 0.000000 0.000000
vt 0.000000 0.000000
vt 0.000000 0.000000
vt 0.000000 0.000000
vt 0.000000 0.000000
vt 0.000000 0.000000
vt 0.000000 0.000000
vt 0.000000 0.000000
vt 0.000000 0.000000
vt 0.000000 0.000000
vt 0.000000 0.000000
vt 0.000000 0.000000
vt 0.000000 0.000000
vt 0.000000 0.000000
vt 0.000000 0.000000
vt 0.000000 0.000000
vt 0.000000 0.000000
vt 0.000000 0.000000
vt 0.000000 0.000000
vt 0.000000 0.000000
vt 0.000000 0.000000
vt 0.000000 0.000000
vt 0.000000 0.000000
vt 0.000000 0.000000
vt 0.000000 0.000000
vt 0.000000 0.000000
vt 0.000000 0.000000
vt 0.000000 0.000000
vt 0.000000 0.000000
vt 0.000000 0.000000
vt 0.000000 0.000000
vt 0.000000 0.000000
vt 0.000000 0.000000
vn 0.0005 -1.0000 0.0044
vn 0.0009 -1.0000 0.0076
vn 0.0012 -1.0000 0.0070
vn -0.0007 -1.0000 0.0067
vn -0.0014 -1.0000 0.0041
vn -0.0013 -1.0000 0.0014
vn -0.0002 -1.0000 0.0002
vn 0.0000 -1.0000 0.0004
vn -0.0005 -1.0000 0.0044
vn -0.0009 -1.0000 0.0076
vn -0.0012 -1.0000 0.0070
vn 0.0007 -1.0000 0.0067
vn 0.0014 -1.0000 0.0041
vn 0.0013 -1.0000 0.0014
vn 0.0002 -1.0000 0.0002
usemtl None
s off
f 30/29/2 37/30/2 36/31/2 29/32/2
f 31/33/3 38/34/3 37/30/3 30/29/3
f 32/35/4 39/36/4 38/34/4 31/33/4
f 33/37/5 40/38/5 39/36/5 32/35/5
f 34/39/6 41/40/6 40/38/6 33/37/6
f 35/41/7 42/42/7 41/40/7 34/39/7
f 51/43/8 59/44/8 42/42/8 35/41/8
f 29/32/9 36/31/9 47/45/9 49/46/9 50/47/9 48/48/9 43/49/9 45/50/9 46/51/9 44/52/9
f 53/53/10 52/54/10 60/55/10 61/56/10
f 54/57/11 53/53/11 61/56/11 62/58/11
f 55/59/12 54/57/12 62/58/12 63/60/12
f 56/61/13 55/59/13 63/60/13 64/62/13
f 57/63/14 56/61/14 64/62/14 65/64/14
f 58/65/15 57/63/15 65/64/15 66/66/15
f 51/43/16 58/65/16 66/66/16 59/44/16
f 52/54/9 68/67/9 70/68/9 69/69/9 67/70/9 72/71/9 74/72/9 73/73/9 71/74/9 60/55/9
